<mxfile modified="2022-05-26T22:07:51.646Z" host="app.diagrams.net" agent="5.0 (Windows NT 10.0; Win64; x64) AppleWebKit/537.36 (KHTML, like Gecko) Chrome/101.0.4951.67 Safari/537.36" etag="3XH7iqnDjNvx6yUMBQKB" version="18.1.3" type="github">
  <diagram id="Ht1M8jgEwFfnCIfOTk4-" name="Page-1">
    <mxGraphModel dx="2198" dy="1024" grid="1" gridSize="10" guides="1" tooltips="1" connect="1" arrows="1" fold="1" page="1" pageScale="1" pageWidth="1169" pageHeight="827" math="0" shadow="0">
      <root>
        <mxCell id="0" />
        <mxCell id="1" parent="0" />
        <mxCell id="7OVz4w7n9kzEPWy-4BBC-3" value="" style="rounded=0;whiteSpace=wrap;html=1;fillColor=#EAEDED;fontSize=22;fontColor=#FFFFFF;strokeColor=none;labelBackgroundColor=none;" parent="1" vertex="1">
          <mxGeometry x="620" y="44" width="539" height="496" as="geometry" />
        </mxCell>
        <mxCell id="7OVz4w7n9kzEPWy-4BBC-4" value="1" style="rounded=1;whiteSpace=wrap;html=1;fillColor=#007CBD;strokeColor=none;fontColor=#FFFFFF;fontStyle=1;fontSize=22;labelBackgroundColor=none;" parent="1" vertex="1">
          <mxGeometry x="638" y="56" width="40" height="38" as="geometry" />
        </mxCell>
        <mxCell id="7OVz4w7n9kzEPWy-4BBC-5" value="3" style="rounded=1;whiteSpace=wrap;html=1;fillColor=#007CBD;strokeColor=none;fontColor=#FFFFFF;fontStyle=1;fontSize=22;labelBackgroundColor=none;" parent="1" vertex="1">
          <mxGeometry x="638" y="154" width="40" height="38" as="geometry" />
        </mxCell>
        <mxCell id="7OVz4w7n9kzEPWy-4BBC-6" value="4" style="rounded=1;whiteSpace=wrap;html=1;fillColor=#007CBD;strokeColor=none;fontColor=#FFFFFF;fontStyle=1;fontSize=22;labelBackgroundColor=none;" parent="1" vertex="1">
          <mxGeometry x="638" y="210" width="40" height="38" as="geometry" />
        </mxCell>
        <mxCell id="7OVz4w7n9kzEPWy-4BBC-7" value="5" style="rounded=1;whiteSpace=wrap;html=1;fillColor=#007CBD;strokeColor=none;fontColor=#FFFFFF;fontStyle=1;fontSize=22;labelBackgroundColor=none;" parent="1" vertex="1">
          <mxGeometry x="638" y="262" width="40" height="38" as="geometry" />
        </mxCell>
        <mxCell id="7OVz4w7n9kzEPWy-4BBC-8" value="8" style="rounded=1;whiteSpace=wrap;html=1;fillColor=#007CBD;strokeColor=none;fontColor=#FFFFFF;fontStyle=1;fontSize=22;labelBackgroundColor=none;" parent="1" vertex="1">
          <mxGeometry x="639.25" y="421" width="40" height="38" as="geometry" />
        </mxCell>
        <mxCell id="7OVz4w7n9kzEPWy-4BBC-9" value="9" style="rounded=1;whiteSpace=wrap;html=1;fillColor=#007CBD;strokeColor=none;fontColor=#FFFFFF;fontStyle=1;fontSize=22;labelBackgroundColor=none;" parent="1" vertex="1">
          <mxGeometry x="639.25" y="470.5" width="40" height="38" as="geometry" />
        </mxCell>
        <mxCell id="7OVz4w7n9kzEPWy-4BBC-13" value="&lt;span&gt;Servicios exterior almacena almacena casos en formato CSV.&lt;/span&gt;" style="text;html=1;align=left;verticalAlign=top;spacingTop=-4;fontSize=14;labelBackgroundColor=none;whiteSpace=wrap;" parent="1" vertex="1">
          <mxGeometry x="689.5" y="55.5" width="449" height="118" as="geometry" />
        </mxCell>
        <mxCell id="7OVz4w7n9kzEPWy-4BBC-14" value="Servicios comprehend aplica machine learning para procesamiento de lenguaje natural y clasificar casos, almacena procesamiento en S3&amp;nbsp;" style="text;html=1;align=left;verticalAlign=top;spacingTop=-4;fontSize=14;labelBackgroundColor=none;whiteSpace=wrap;" parent="1" vertex="1">
          <mxGeometry x="688.5" y="154" width="450" height="115" as="geometry" />
        </mxCell>
        <mxCell id="7OVz4w7n9kzEPWy-4BBC-15" value="&lt;span&gt;Funcion lambda toma datos de S3 y almacena resultados en RDS.&lt;/span&gt;" style="text;html=1;align=left;verticalAlign=top;spacingTop=-4;fontSize=14;labelBackgroundColor=none;whiteSpace=wrap;" parent="1" vertex="1">
          <mxGeometry x="689.5" y="210" width="450" height="117" as="geometry" />
        </mxCell>
        <mxCell id="7OVz4w7n9kzEPWy-4BBC-16" value="&lt;span&gt;JasperReports on Lambda permite generar informes/cartas en formato PDF a partir de datos en RDS&lt;/span&gt;" style="text;html=1;align=left;verticalAlign=top;spacingTop=-4;fontSize=14;labelBackgroundColor=none;whiteSpace=wrap;" parent="1" vertex="1">
          <mxGeometry x="688.5" y="262" width="450" height="121" as="geometry" />
        </mxCell>
        <mxCell id="7OVz4w7n9kzEPWy-4BBC-17" value="&lt;span&gt;Lambda almacena cartas en S3 Glacier para llevar trazabilidad de respuestas a clientes&lt;/span&gt;" style="text;html=1;align=left;verticalAlign=top;spacingTop=-4;fontSize=14;labelBackgroundColor=none;whiteSpace=wrap;" parent="1" vertex="1">
          <mxGeometry x="689.75" y="421" width="449" height="114" as="geometry" />
        </mxCell>
        <mxCell id="7OVz4w7n9kzEPWy-4BBC-18" value="&lt;span&gt;Lambda dispara envio de cartas por correo electronico con AWS SES a cliente.&lt;/span&gt;" style="text;html=1;align=left;verticalAlign=top;spacingTop=-4;fontSize=14;labelBackgroundColor=none;whiteSpace=wrap;" parent="1" vertex="1">
          <mxGeometry x="689.75" y="470.5" width="450" height="72.5" as="geometry" />
        </mxCell>
        <mxCell id="3hsHaZP7lo4ritKz-2os-33" style="edgeStyle=orthogonalEdgeStyle;rounded=0;orthogonalLoop=1;jettySize=auto;html=1;entryX=0.5;entryY=1;entryDx=0;entryDy=0;entryPerimeter=0;" edge="1" parent="1" source="3hsHaZP7lo4ritKz-2os-2" target="3hsHaZP7lo4ritKz-2os-32">
          <mxGeometry relative="1" as="geometry" />
        </mxCell>
        <mxCell id="3hsHaZP7lo4ritKz-2os-2" value="" style="sketch=0;points=[[0,0,0],[0.25,0,0],[0.5,0,0],[0.75,0,0],[1,0,0],[0,1,0],[0.25,1,0],[0.5,1,0],[0.75,1,0],[1,1,0],[0,0.25,0],[0,0.5,0],[0,0.75,0],[1,0.25,0],[1,0.5,0],[1,0.75,0]];outlineConnect=0;fontColor=#232F3E;gradientColor=#60A337;gradientDirection=north;fillColor=#277116;strokeColor=#ffffff;dashed=0;verticalLabelPosition=bottom;verticalAlign=top;align=center;html=1;fontSize=12;fontStyle=0;aspect=fixed;shape=mxgraph.aws4.resourceIcon;resIcon=mxgraph.aws4.s3;" vertex="1" parent="1">
          <mxGeometry x="40" y="419" width="78" height="78" as="geometry" />
        </mxCell>
        <mxCell id="3hsHaZP7lo4ritKz-2os-10" value="" style="edgeStyle=orthogonalEdgeStyle;rounded=0;orthogonalLoop=1;jettySize=auto;html=1;" edge="1" parent="1" source="3hsHaZP7lo4ritKz-2os-7" target="3hsHaZP7lo4ritKz-2os-9">
          <mxGeometry relative="1" as="geometry" />
        </mxCell>
        <mxCell id="3hsHaZP7lo4ritKz-2os-7" value="" style="sketch=0;points=[[0,0,0],[0.25,0,0],[0.5,0,0],[0.75,0,0],[1,0,0],[0,1,0],[0.25,1,0],[0.5,1,0],[0.75,1,0],[1,1,0],[0,0.25,0],[0,0.5,0],[0,0.75,0],[1,0.25,0],[1,0.5,0],[1,0.75,0]];outlineConnect=0;fontColor=#232F3E;gradientColor=#4AB29A;gradientDirection=north;fillColor=#116D5B;strokeColor=#ffffff;dashed=0;verticalLabelPosition=bottom;verticalAlign=top;align=center;html=1;fontSize=12;fontStyle=0;aspect=fixed;shape=mxgraph.aws4.resourceIcon;resIcon=mxgraph.aws4.comprehend;" vertex="1" parent="1">
          <mxGeometry x="40" y="264" width="78" height="78" as="geometry" />
        </mxCell>
        <mxCell id="3hsHaZP7lo4ritKz-2os-12" value="" style="edgeStyle=orthogonalEdgeStyle;rounded=0;orthogonalLoop=1;jettySize=auto;html=1;" edge="1" parent="1" source="3hsHaZP7lo4ritKz-2os-9" target="3hsHaZP7lo4ritKz-2os-11">
          <mxGeometry relative="1" as="geometry" />
        </mxCell>
        <mxCell id="3hsHaZP7lo4ritKz-2os-9" value="" style="outlineConnect=0;dashed=0;verticalLabelPosition=bottom;verticalAlign=top;align=center;html=1;shape=mxgraph.aws3.lambda_function;fillColor=#F58534;gradientColor=none;" vertex="1" parent="1">
          <mxGeometry x="44.5" y="118" width="69" height="72" as="geometry" />
        </mxCell>
        <mxCell id="3hsHaZP7lo4ritKz-2os-11" value="RDS" style="outlineConnect=0;dashed=0;verticalLabelPosition=bottom;verticalAlign=top;align=center;html=1;shape=mxgraph.aws3.rds_db_instance;fillColor=#2E73B8;gradientColor=none;" vertex="1" parent="1">
          <mxGeometry x="189.5" y="121" width="49.5" height="66" as="geometry" />
        </mxCell>
        <mxCell id="3hsHaZP7lo4ritKz-2os-18" value="" style="edgeStyle=orthogonalEdgeStyle;rounded=0;orthogonalLoop=1;jettySize=auto;html=1;" edge="1" parent="1" source="3hsHaZP7lo4ritKz-2os-14" target="3hsHaZP7lo4ritKz-2os-17">
          <mxGeometry relative="1" as="geometry" />
        </mxCell>
        <mxCell id="3hsHaZP7lo4ritKz-2os-20" value="" style="edgeStyle=orthogonalEdgeStyle;rounded=0;orthogonalLoop=1;jettySize=auto;html=1;" edge="1" parent="1" source="3hsHaZP7lo4ritKz-2os-14" target="3hsHaZP7lo4ritKz-2os-19">
          <mxGeometry relative="1" as="geometry" />
        </mxCell>
        <mxCell id="3hsHaZP7lo4ritKz-2os-14" value="&lt;br&gt;&lt;em style=&quot;font-variant-ligatures: normal; font-variant-caps: normal; font-weight: 400; letter-spacing: normal; orphans: 2; text-indent: 0px; text-transform: none; widows: 2; word-spacing: 0px; -webkit-text-stroke-width: 0px; background-color: rgb(248, 249, 250); text-decoration-thickness: initial; text-decoration-style: initial; text-decoration-color: initial; box-sizing: border-box; font-family: AmazonEmber, &amp;quot;Helvetica Neue&amp;quot;, Helvetica, Arial, sans-serif; color: rgb(51, 51, 51); font-size: 14px; text-align: start;&quot;&gt;JasperReports&amp;nbsp;&lt;/em&gt;&lt;br&gt;On Lambda" style="outlineConnect=0;dashed=0;verticalLabelPosition=bottom;verticalAlign=top;align=center;html=1;shape=mxgraph.aws3.lambda_function;fillColor=#F58534;gradientColor=none;" vertex="1" parent="1">
          <mxGeometry x="319.5" y="118" width="69" height="72" as="geometry" />
        </mxCell>
        <mxCell id="3hsHaZP7lo4ritKz-2os-17" value="" style="outlineConnect=0;dashed=0;verticalLabelPosition=bottom;verticalAlign=top;align=center;html=1;shape=mxgraph.aws3.ses;fillColor=#D9A741;gradientColor=none;" vertex="1" parent="1">
          <mxGeometry x="499.5" y="107" width="79.5" height="93" as="geometry" />
        </mxCell>
        <mxCell id="3hsHaZP7lo4ritKz-2os-19" value="" style="sketch=0;points=[[0,0,0],[0.25,0,0],[0.5,0,0],[0.75,0,0],[1,0,0],[0,1,0],[0.25,1,0],[0.5,1,0],[0.75,1,0],[1,1,0],[0,0.25,0],[0,0.5,0],[0,0.75,0],[1,0.25,0],[1,0.5,0],[1,0.75,0]];outlineConnect=0;fontColor=#232F3E;gradientColor=#60A337;gradientDirection=north;fillColor=#277116;strokeColor=#ffffff;dashed=0;verticalLabelPosition=bottom;verticalAlign=top;align=center;html=1;fontSize=12;fontStyle=0;aspect=fixed;shape=mxgraph.aws4.resourceIcon;resIcon=mxgraph.aws4.glacier;" vertex="1" parent="1">
          <mxGeometry x="315" y="276.5" width="78" height="78" as="geometry" />
        </mxCell>
        <mxCell id="3hsHaZP7lo4ritKz-2os-23" value="4" style="rounded=1;whiteSpace=wrap;html=1;fillColor=#007CBD;strokeColor=none;fontColor=#FFFFFF;fontStyle=1;fontSize=22;labelBackgroundColor=none;" vertex="1" parent="1">
          <mxGeometry x="59" y="44" width="40" height="38" as="geometry" />
        </mxCell>
        <mxCell id="3hsHaZP7lo4ritKz-2os-24" value="3" style="rounded=1;whiteSpace=wrap;html=1;fillColor=#007CBD;strokeColor=none;fontColor=#FFFFFF;fontStyle=1;fontSize=22;labelBackgroundColor=none;" vertex="1" parent="1">
          <mxGeometry x="129.5" y="284" width="40" height="38" as="geometry" />
        </mxCell>
        <mxCell id="3hsHaZP7lo4ritKz-2os-26" value="5" style="rounded=1;whiteSpace=wrap;html=1;fillColor=#007CBD;strokeColor=none;fontColor=#FFFFFF;fontStyle=1;fontSize=22;labelBackgroundColor=none;" vertex="1" parent="1">
          <mxGeometry x="334" y="44" width="40" height="38" as="geometry" />
        </mxCell>
        <mxCell id="3hsHaZP7lo4ritKz-2os-27" value="6" style="rounded=1;whiteSpace=wrap;html=1;fillColor=#007CBD;strokeColor=none;fontColor=#FFFFFF;fontStyle=1;fontSize=22;labelBackgroundColor=none;" vertex="1" parent="1">
          <mxGeometry x="139.5" y="585" width="40" height="38" as="geometry" />
        </mxCell>
        <mxCell id="3hsHaZP7lo4ritKz-2os-28" value="7" style="rounded=1;whiteSpace=wrap;html=1;fillColor=#007CBD;strokeColor=none;fontColor=#FFFFFF;fontStyle=1;fontSize=22;labelBackgroundColor=none;" vertex="1" parent="1">
          <mxGeometry x="229.5" y="719" width="40" height="38" as="geometry" />
        </mxCell>
        <mxCell id="3hsHaZP7lo4ritKz-2os-29" value="" style="endArrow=classic;startArrow=classic;html=1;rounded=0;entryX=0.5;entryY=1;entryDx=0;entryDy=0;entryPerimeter=0;exitX=0.5;exitY=0;exitDx=0;exitDy=0;exitPerimeter=0;" edge="1" parent="1" source="3hsHaZP7lo4ritKz-2os-2" target="3hsHaZP7lo4ritKz-2os-7">
          <mxGeometry width="50" height="50" relative="1" as="geometry">
            <mxPoint x="-180.5" y="154" as="sourcePoint" />
            <mxPoint x="-120.5" y="134" as="targetPoint" />
          </mxGeometry>
        </mxCell>
        <mxCell id="3hsHaZP7lo4ritKz-2os-30" value="" style="endArrow=classic;startArrow=classic;html=1;rounded=0;entryX=0;entryY=0.5;entryDx=0;entryDy=0;entryPerimeter=0;" edge="1" parent="1" source="3hsHaZP7lo4ritKz-2os-11" target="3hsHaZP7lo4ritKz-2os-14">
          <mxGeometry width="50" height="50" relative="1" as="geometry">
            <mxPoint x="259.5" y="184" as="sourcePoint" />
            <mxPoint x="309.5" y="134" as="targetPoint" />
          </mxGeometry>
        </mxCell>
        <mxCell id="3hsHaZP7lo4ritKz-2os-34" value="" style="edgeStyle=orthogonalEdgeStyle;rounded=0;orthogonalLoop=1;jettySize=auto;html=1;" edge="1" parent="1" source="3hsHaZP7lo4ritKz-2os-32" target="3hsHaZP7lo4ritKz-2os-11">
          <mxGeometry relative="1" as="geometry">
            <mxPoint x="183.5" y="234" as="targetPoint" />
          </mxGeometry>
        </mxCell>
        <mxCell id="3hsHaZP7lo4ritKz-2os-32" value="" style="outlineConnect=0;dashed=0;verticalLabelPosition=bottom;verticalAlign=top;align=center;html=1;shape=mxgraph.aws3.lambda_function;fillColor=#F58534;gradientColor=none;" vertex="1" parent="1">
          <mxGeometry x="139.5" y="364" width="69" height="72" as="geometry" />
        </mxCell>
        <mxCell id="3hsHaZP7lo4ritKz-2os-37" value="2" style="rounded=1;whiteSpace=wrap;html=1;fillColor=#007CBD;strokeColor=none;fontColor=#FFFFFF;fontStyle=1;fontSize=22;labelBackgroundColor=none;" vertex="1" parent="1">
          <mxGeometry x="638" y="105" width="40" height="38" as="geometry" />
        </mxCell>
        <mxCell id="3hsHaZP7lo4ritKz-2os-38" value="Función lambda agrega datos necesarios para la generación de cartas" style="text;html=1;align=left;verticalAlign=top;spacingTop=-4;fontSize=14;labelBackgroundColor=none;whiteSpace=wrap;" vertex="1" parent="1">
          <mxGeometry x="689.5" y="105" width="450" height="49.5" as="geometry" />
        </mxCell>
        <mxCell id="3hsHaZP7lo4ritKz-2os-39" value="2" style="rounded=1;whiteSpace=wrap;html=1;fillColor=#007CBD;strokeColor=none;fontColor=#FFFFFF;fontStyle=1;fontSize=22;labelBackgroundColor=none;" vertex="1" parent="1">
          <mxGeometry x="239" y="449.5" width="40" height="38" as="geometry" />
        </mxCell>
        <mxCell id="3hsHaZP7lo4ritKz-2os-40" value="" style="edgeStyle=orthogonalEdgeStyle;rounded=0;orthogonalLoop=1;jettySize=auto;html=1;" edge="1" parent="1" source="3hsHaZP7lo4ritKz-2os-41" target="3hsHaZP7lo4ritKz-2os-43">
          <mxGeometry relative="1" as="geometry" />
        </mxCell>
        <mxCell id="3hsHaZP7lo4ritKz-2os-41" value="" style="sketch=0;points=[[0,0,0],[0.25,0,0],[0.5,0,0],[0.75,0,0],[1,0,0],[0,1,0],[0.25,1,0],[0.5,1,0],[0.75,1,0],[1,1,0],[0,0.25,0],[0,0.5,0],[0,0.75,0],[1,0.25,0],[1,0.5,0],[1,0.75,0]];outlineConnect=0;fontColor=#232F3E;gradientColor=#4AB29A;gradientDirection=north;fillColor=#116D5B;strokeColor=#ffffff;dashed=0;verticalLabelPosition=bottom;verticalAlign=top;align=center;html=1;fontSize=12;fontStyle=0;aspect=fixed;shape=mxgraph.aws4.resourceIcon;resIcon=mxgraph.aws4.comprehend;" vertex="1" parent="1">
          <mxGeometry x="40" y="565" width="78" height="78" as="geometry" />
        </mxCell>
        <mxCell id="3hsHaZP7lo4ritKz-2os-47" style="edgeStyle=orthogonalEdgeStyle;rounded=0;orthogonalLoop=1;jettySize=auto;html=1;entryX=0.5;entryY=0.98;entryDx=0;entryDy=0;entryPerimeter=0;" edge="1" parent="1" source="3hsHaZP7lo4ritKz-2os-43" target="3hsHaZP7lo4ritKz-2os-11">
          <mxGeometry relative="1" as="geometry" />
        </mxCell>
        <mxCell id="3hsHaZP7lo4ritKz-2os-43" value="" style="outlineConnect=0;dashed=0;verticalLabelPosition=bottom;verticalAlign=top;align=center;html=1;shape=mxgraph.aws3.lambda_function;fillColor=#F58534;gradientColor=none;" vertex="1" parent="1">
          <mxGeometry x="44.5" y="702" width="69" height="72" as="geometry" />
        </mxCell>
        <mxCell id="3hsHaZP7lo4ritKz-2os-53" value="6" style="rounded=1;whiteSpace=wrap;html=1;fillColor=#007CBD;strokeColor=none;fontColor=#FFFFFF;fontStyle=1;fontSize=22;labelBackgroundColor=none;" vertex="1" parent="1">
          <mxGeometry x="639.25" y="312.5" width="40" height="38" as="geometry" />
        </mxCell>
        <mxCell id="3hsHaZP7lo4ritKz-2os-54" value="7" style="rounded=1;whiteSpace=wrap;html=1;fillColor=#007CBD;strokeColor=none;fontColor=#FFFFFF;fontStyle=1;fontSize=22;labelBackgroundColor=none;" vertex="1" parent="1">
          <mxGeometry x="639.25" y="370" width="40" height="38" as="geometry" />
        </mxCell>
        <mxCell id="3hsHaZP7lo4ritKz-2os-55" value="Servicios comprehend aplica machine learning para procesamiento de lenguaje natural y seleccionar pretensión mas apropiada, almacena procesamiento en S3&amp;nbsp;" style="text;html=1;align=left;verticalAlign=top;spacingTop=-4;fontSize=14;labelBackgroundColor=none;whiteSpace=wrap;" vertex="1" parent="1">
          <mxGeometry x="690.75" y="312.5" width="449" height="114" as="geometry" />
        </mxCell>
        <mxCell id="3hsHaZP7lo4ritKz-2os-56" value="Funcion lambda toma datos de S3 y almacena resultados en RDS." style="text;html=1;align=left;verticalAlign=top;spacingTop=-4;fontSize=14;labelBackgroundColor=none;whiteSpace=wrap;" vertex="1" parent="1">
          <mxGeometry x="689.75" y="370" width="450" height="72.5" as="geometry" />
        </mxCell>
        <mxCell id="3hsHaZP7lo4ritKz-2os-58" value="8" style="rounded=1;whiteSpace=wrap;html=1;fillColor=#007CBD;strokeColor=none;fontColor=#FFFFFF;fontStyle=1;fontSize=22;labelBackgroundColor=none;" vertex="1" parent="1">
          <mxGeometry x="409.5" y="296" width="40" height="38" as="geometry" />
        </mxCell>
        <mxCell id="3hsHaZP7lo4ritKz-2os-59" value="9" style="rounded=1;whiteSpace=wrap;html=1;fillColor=#007CBD;strokeColor=none;fontColor=#FFFFFF;fontStyle=1;fontSize=22;labelBackgroundColor=none;" vertex="1" parent="1">
          <mxGeometry x="529.5" y="44" width="40" height="38" as="geometry" />
        </mxCell>
        <mxCell id="3hsHaZP7lo4ritKz-2os-60" value="" style="endArrow=classic;startArrow=classic;html=1;rounded=0;entryX=0.5;entryY=1;entryDx=0;entryDy=0;entryPerimeter=0;" edge="1" parent="1" source="3hsHaZP7lo4ritKz-2os-41" target="3hsHaZP7lo4ritKz-2os-2">
          <mxGeometry width="50" height="50" relative="1" as="geometry">
            <mxPoint x="79.5" y="564" as="sourcePoint" />
            <mxPoint x="78.41000000000022" y="514" as="targetPoint" />
          </mxGeometry>
        </mxCell>
      </root>
    </mxGraphModel>
  </diagram>
</mxfile>
